<svg width="553" height="516" viewBox="0 0 553 516" fill="none" xmlns="http://www.w3.org/2000/svg">
<path d="M372.633 365.415H174.325C157.656 365.415 144.095 351.854 144.095 335.185V136.877C144.095 120.208 157.656 106.647 174.325 106.647H372.633C389.302 106.647 402.863 120.208 402.863 136.877V335.185C402.863 351.854 389.302 365.415 372.633 365.415V365.415ZM174.325 111.484C160.301 111.484 148.932 122.853 148.932 136.877V335.185C148.932 349.209 160.301 360.578 174.325 360.578H313.235C360.064 360.578 398.026 322.616 398.026 275.787V136.877C398.026 122.853 386.657 111.484 372.633 111.484H174.325V111.484Z" fill="#F2F2F2"/>
<path d="M195.704 132.106C186.318 132.106 178.683 139.742 178.683 149.127V175.769C178.683 185.155 186.318 192.79 195.704 192.79H222.346C231.732 192.79 239.367 185.155 239.367 175.769V149.127C239.367 139.742 231.732 132.106 222.346 132.106H195.704Z" fill="#F2F2F2"/>
<path d="M195.704 207.106C186.318 207.106 178.683 214.742 178.683 224.127V250.769C178.683 260.155 186.318 267.79 195.704 267.79H222.346C231.732 267.79 239.367 260.155 239.367 250.769V224.127C239.367 214.742 231.732 207.106 222.346 207.106H195.704V207.106Z" fill="#F2F2F2"/>
<path d="M195.704 282.106C186.318 282.106 178.683 289.742 178.683 299.127V325.769C178.683 335.155 186.318 342.79 195.704 342.79H222.346C231.732 342.79 239.367 335.155 239.367 325.769V299.127C239.367 289.742 231.732 282.106 222.346 282.106H195.704Z" fill="#F2F2F2"/>
<path d="M213.371 67.1062C201.545 67.1062 191.924 76.727 191.924 88.5533V122.123C191.924 133.949 201.545 143.57 213.371 143.57H246.941C258.767 143.57 268.388 133.949 268.388 122.123V88.5533C268.388 76.727 258.767 67.1062 246.941 67.1062H213.371V67.1062Z" fill="#C2A410"/>
<path d="M323.89 160.919C312.064 160.919 302.443 170.539 302.443 182.366V215.935C302.443 227.762 312.064 237.382 323.89 237.382H357.459C369.286 237.382 378.906 227.762 378.906 215.935V182.366C378.906 170.539 369.286 160.919 357.459 160.919H323.89Z" fill="#C2A410"/>
<path d="M275.842 498.808L269.022 498.751L266.003 471.833L276.069 471.918L275.842 498.808Z" fill="#A0616A"/>
<path d="M253.998 509.653C253.983 511.331 255.336 512.713 257.021 512.728L270.58 512.841L272.953 508.03L273.825 512.866L278.941 512.912L277.649 495.664L275.87 495.546L268.609 495.045L266.267 494.888L266.226 499.768L255.334 507.156C254.505 507.719 254.006 508.652 253.998 509.653H253.998Z" fill="#2F2E41"/>
<path d="M310.54 498.808L303.72 498.751L300.701 471.833L310.766 471.918L310.54 498.808Z" fill="#A0616A"/>
<path d="M288.695 509.653C288.681 511.331 290.034 512.713 291.718 512.728L305.277 512.841L307.651 508.03L308.523 512.866L313.639 512.912L312.347 495.664L310.567 495.546L303.307 495.045L300.965 494.888L300.924 499.768L290.031 507.156C289.203 507.719 288.704 508.652 288.695 509.653V509.653Z" fill="#2F2E41"/>
<path d="M249.081 281.178L276.724 282.051L302.913 287.871C302.913 287.871 300.294 291.072 309.024 299.801C309.024 299.801 320.663 320.17 312.516 339.957L309.024 419.105C309.024 419.105 319.205 474.899 311.426 492.656L301.145 493.298L283.749 419.749L275.27 340.539L271.196 418.523C271.196 418.523 286.781 472.049 276.939 493.298L265.805 492.656L246.753 418.523C246.753 418.523 238.606 332.974 239.77 316.678C240.934 300.383 249.081 281.178 249.081 281.178H249.081Z" fill="#2F2E41"/>
<path d="M341.914 156.113C338.135 157.091 335.865 160.948 336.843 164.727C337.291 166.459 338.348 167.867 339.721 168.798L339.72 168.808L339.184 181.792L349.121 186.391L349.914 166.409L349.845 166.411C350.706 164.876 351.004 163.022 350.528 161.183C349.549 157.405 345.693 155.134 341.914 156.113V156.113Z" fill="#A0616A"/>
<path d="M286.378 202.455C284.29 200.386 283.079 197.581 283.034 194.53C282.973 190.438 285.024 186.724 288.52 184.595C292.545 182.143 297.579 182.391 301.345 185.226L332.547 208.719L338.107 174.875L350.044 178.718L347.196 222.788C346.997 225.87 345.255 228.586 342.535 230.052C339.816 231.518 336.59 231.481 333.905 229.954L288.812 204.299C287.907 203.783 287.091 203.162 286.378 202.455V202.455Z" fill="#3F3D56"/>
<path d="M238.799 137.182C240.794 140.538 239.691 144.875 236.335 146.869C234.798 147.783 233.056 148.04 231.426 147.734L231.419 147.742L222.658 157.34L212.364 153.61L225.869 138.862L225.916 138.912C226.385 137.215 227.479 135.689 229.112 134.718C232.467 132.723 236.804 133.827 238.799 137.182V137.182Z" fill="#A0616A"/>
<path d="M242.583 208.787L192.498 195.258C189.516 194.453 187.199 192.208 186.3 189.252C185.402 186.297 186.076 183.142 188.105 180.812L217.11 147.511L228.293 153.186L208.413 181.135L247.112 186.42C251.782 187.057 255.531 190.426 256.664 195.001C257.648 198.974 256.489 203.055 253.564 205.919C251.385 208.053 248.55 209.193 245.61 209.192C244.606 209.192 243.59 209.059 242.583 208.787H242.583Z" fill="#3F3D56"/>
<path d="M313.989 292.822L243.951 296.035C242.027 293.114 242.548 288.722 245.242 283.221C255.413 262.454 247.688 223.167 242.492 202.71C241.034 196.97 244.948 191.264 250.84 190.674L257.444 190.014L263.548 171.38H284.927L293.796 181.513L308.848 190.657C306.109 218.877 294.435 258.727 311.065 278.712C314.703 283.083 315.734 287.809 313.989 292.822V292.822Z" fill="#3F3D56"/>
<path d="M271.518 171.81C283.019 171.81 292.342 162.487 292.342 150.987C292.342 139.486 283.019 130.163 271.518 130.163C260.018 130.163 250.695 139.486 250.695 150.987C250.695 162.487 260.018 171.81 271.518 171.81Z" fill="#A0616A"/>
<path d="M295.082 137.658C297.979 127.095 266.403 118.037 260.266 126.543C259.413 125.334 256.26 124.599 254.813 124.97C253.366 125.341 252.15 126.269 250.962 127.167C249.33 128.42 247.638 129.719 246.637 131.522C245.628 133.317 245.472 135.766 246.83 137.324C247.906 138.563 249.796 145.147 251.414 145.474C252.541 145.704 253.491 145.889 254.307 146.023C255.034 144.962 256.888 143.629 256.755 142.345C257.853 143.072 257.452 144.352 257.23 145.659C256.493 150.013 239.884 183.714 249.397 173.783C250.339 174.34 251.504 174.859 252.847 175.334C255.125 171.899 256.994 167.848 258.226 163.611L258.235 163.689C258.659 167.371 261.349 170.392 264.909 171.423C279.189 175.56 290.739 169.49 294.712 158.543C293.258 155.59 292.624 155.911 292.754 155.823C294.57 154.599 297.066 155.4 297.846 157.446C298.076 158.049 298.285 158.564 298.467 158.951C300.537 151.547 302.999 152.615 295.082 137.658H295.082Z" fill="#2F2E41"/>
<path d="M285.231 129.994L283.772 122.537C283.65 121.91 283.533 121.23 283.816 120.657C284.179 119.921 285.113 119.616 285.925 119.734C286.737 119.851 287.345 120.593 288.153 120.736C290.963 121.232 294.677 118.457 295.683 125.478C296.103 128.405 300.774 128.715 302.334 131.227C303.894 133.739 304.086 137.366 301.957 139.418C300.256 141.057 297.526 141.247 295.317 140.409C293.109 139.572 291.337 137.88 289.789 136.097C288.24 134.313 286.839 132.383 285.053 130.837" fill="#2F2E41"/>
<path d="M296.194 141.336C290.496 140.54 286.612 138.468 284.651 135.177C282.083 130.87 283.803 126.127 283.877 125.927L285.082 126.375C285.066 126.418 283.505 130.76 285.761 134.53C287.516 137.463 291.086 139.325 296.372 140.063L296.194 141.336V141.336Z" fill="#C2A410"/>
<path d="M322.934 60.7623C306.183 60.7623 292.553 47.1323 292.553 30.3812C292.553 13.63 306.183 0 322.934 0C339.685 0 353.315 13.63 353.315 30.3812C353.315 47.1323 339.685 60.7623 322.934 60.7623ZM322.934 12.1525C312.882 12.1525 304.705 20.3293 304.705 30.3812C304.705 40.4331 312.882 48.6099 322.934 48.6099C332.986 48.6099 341.163 40.4331 341.163 30.3812C341.163 20.3293 332.986 12.1525 322.934 12.1525V12.1525Z" fill="#C2A410"/>
<path d="M369.677 81.409C368.188 81.409 366.696 80.866 365.524 79.7653L337.009 53.0424C334.558 50.7489 334.433 46.9038 336.73 44.4561C339.02 41.9995 342.865 41.8779 345.316 44.1772L373.831 70.9002C376.282 73.1936 376.406 77.0387 374.11 79.4864C372.914 80.7652 371.297 81.409 369.677 81.409V81.409Z" fill="#C2A410"/>
</svg>
